<svg width="24" height="24" viewBox="0 0 24 24" fill="none" xmlns="http://www.w3.org/2000/svg">
<path fill-rule="evenodd" clip-rule="evenodd" d="M17.7402 11.2941L22.039 6.99671C22.632 6.40236 22.632 5.43954 22.039 4.84801L17.7402 0.549183C17.4549 0.264431 17.0682 0.104507 16.6651 0.104507C16.262 0.104507 15.8754 0.264431 15.5901 0.549183L11.2927 4.8466L6.99525 0.549183C6.70993 0.264431 6.3233 0.104507 5.9202 0.104507C5.51709 0.104507 5.13046 0.264431 4.84514 0.549183L0.547725 4.84801C0.406172 4.98879 0.293816 5.15614 0.217105 5.34046C0.140394 5.52477 0.100837 5.72242 0.100706 5.92207C0.100575 6.12171 0.139872 6.31941 0.216341 6.50383C0.29281 6.68824 0.404946 6.85574 0.546313 6.99671L4.84372 11.2941L0.546313 15.5915C0.404903 15.7326 0.292737 15.9002 0.216249 16.0848C0.139761 16.2693 0.100455 16.4671 0.100586 16.6669C0.100717 16.8666 0.140283 17.0644 0.217013 17.2488C0.293743 17.4333 0.406129 17.6007 0.547725 17.7417L4.84514 22.0391C5.43808 22.6334 6.4009 22.6334 6.99525 22.0391L11.2927 17.7417L15.5901 22.0391C15.7312 22.1804 15.8987 22.2925 16.0832 22.369C16.2677 22.4455 16.4654 22.4849 16.6651 22.4849C16.8648 22.4849 17.0626 22.4455 17.2471 22.369C17.4315 22.2925 17.5991 22.1804 17.7402 22.0391L22.039 17.7417C22.632 17.1473 22.632 16.1845 22.039 15.5915L17.7402 11.2941Z" fill="#FF6584"/>
</svg>
