<svg width="27" height="24" viewBox="0 0 27 24" fill="none" xmlns="http://www.w3.org/2000/svg">
<path d="M13.3752 4.08818C13.2991 4.01535 13.1978 3.9747 13.0924 3.9747C12.9871 3.9747 12.8858 4.01535 12.8096 4.08818L3.39542 13.0815C3.35544 13.1198 3.32363 13.1657 3.30192 13.2166C3.28021 13.2675 3.26905 13.3223 3.26911 13.3776L3.26758 21.8182C3.26758 22.2522 3.43998 22.6684 3.74686 22.9753C4.05374 23.2821 4.46995 23.4545 4.90394 23.4545H9.81815C10.0351 23.4545 10.2432 23.3683 10.3967 23.2149C10.5501 23.0615 10.6363 22.8534 10.6363 22.6364V15.6818C10.6363 15.5733 10.6794 15.4693 10.7561 15.3925C10.8329 15.3158 10.9369 15.2727 11.0454 15.2727H15.1363C15.2448 15.2727 15.3489 15.3158 15.4256 15.3925C15.5023 15.4693 15.5454 15.5733 15.5454 15.6818V22.6364C15.5454 22.8534 15.6316 23.0615 15.7851 23.2149C15.9385 23.3683 16.1466 23.4545 16.3636 23.4545H21.2758C21.7098 23.4545 22.126 23.2821 22.4328 22.9753C22.7397 22.6684 22.9121 22.2522 22.9121 21.8182V13.3776C22.9122 13.3223 22.901 13.2675 22.8793 13.2166C22.8576 13.1657 22.8258 13.1198 22.7858 13.0815L13.3752 4.08818Z" fill="#3F3D56"/>
<path d="M25.1033 11.394L21.2783 7.73472V2.18182C21.2783 1.96482 21.1921 1.75672 21.0387 1.60328C20.8852 1.44984 20.6771 1.36364 20.4601 1.36364H18.0056C17.7886 1.36364 17.5805 1.44984 17.427 1.60328C17.2736 1.75672 17.1874 1.96482 17.1874 2.18182V3.81818L14.2256 0.986251C13.9484 0.706024 13.5363 0.545456 13.0909 0.545456C12.647 0.545456 12.2359 0.706024 11.9587 0.986763L1.082 11.393C0.76393 11.6998 0.724044 12.2045 1.01348 12.5369C1.08616 12.6208 1.17515 12.6891 1.27504 12.7375C1.37493 12.7859 1.48362 12.8135 1.59451 12.8185C1.70539 12.8236 1.81615 12.8061 1.92004 12.767C2.02393 12.7279 2.11878 12.6681 2.19882 12.5911L12.8096 2.45182C12.8857 2.37899 12.987 2.33834 13.0924 2.33834C13.1978 2.33834 13.299 2.37899 13.3752 2.45182L23.987 12.5911C24.1433 12.741 24.3527 12.8229 24.5692 12.8186C24.7858 12.8144 24.9918 12.7245 25.1422 12.5686C25.4561 12.2434 25.4301 11.7065 25.1033 11.394Z" fill="#3F3D56"/>
</svg>
