<svg width="32" height="24" viewBox="0 0 32 24" fill="none" xmlns="http://www.w3.org/2000/svg">
<g clip-path="url(#clip0)">
<path d="M11 12C9.34375 12 7.92969 11.4141 6.75781 10.2422C5.58594 9.07031 5 7.65625 5 6C5 4.34375 5.58594 2.92969 6.75781 1.75781C7.92969 0.585938 9.34375 0 11 0C12.6562 0 14.0703 0.585938 15.2422 1.75781C16.4141 2.92969 17 4.34375 17 6C17 7.65625 16.4141 9.07031 15.2422 10.2422C14.0703 11.4141 12.6562 12 11 12ZM26 14H31.5C31.6354 14 31.7526 14.0495 31.8516 14.1484C31.9505 14.2474 32 14.3646 32 14.5V17.5C32 17.6354 31.9505 17.7526 31.8516 17.8516C31.7526 17.9505 31.6354 18 31.5 18H26V23.5C26 23.6354 25.9505 23.7526 25.8516 23.8516C25.7526 23.9505 25.6354 24 25.5 24H22.5C22.3646 24 22.2474 23.9505 22.1484 23.8516C22.0495 23.7526 22 23.6354 22 23.5V18H16.5C16.3646 18 16.2474 17.9505 16.1484 17.8516C16.0495 17.7526 16 17.6354 16 17.5V14.5C16 14.3646 16.0495 14.2474 16.1484 14.1484C16.2474 14.0495 16.3646 14 16.5 14H22V8.5C22 8.36458 22.0495 8.2474 22.1484 8.14844C22.2474 8.04948 22.3646 8 22.5 8H25.5C25.6354 8 25.7526 8.04948 25.8516 8.14844C25.9505 8.2474 26 8.36458 26 8.5V14ZM14.5 17.5C14.5 18.0417 14.6979 18.5104 15.0937 18.9062C15.4896 19.3021 15.9583 19.5 16.5 19.5H20.5V23.2188C19.7917 23.7396 18.901 24 17.8281 24H4.17187C2.91146 24 1.90104 23.6406 1.14062 22.9219C0.380208 22.2031 0 21.2135 0 19.9531C0 19.401 0.0182292 18.862 0.0546875 18.3359C0.0911458 17.8099 0.164062 17.2422 0.273437 16.6328C0.382812 16.0234 0.520833 15.4583 0.6875 14.9375C0.854166 14.4167 1.07812 13.9089 1.35937 13.4141C1.64062 12.9193 1.96354 12.4974 2.32812 12.1484C2.69271 11.7995 3.13802 11.5208 3.66406 11.3125C4.1901 11.1042 4.77083 11 5.40625 11C5.60417 11 5.80729 11.0885 6.01562 11.2656C6.83854 11.901 7.64323 12.3776 8.42969 12.6953C9.21614 13.013 10.0729 13.1719 11 13.1719C11.9271 13.1719 12.7839 13.013 13.5703 12.6953C14.3568 12.3776 15.1615 11.901 15.9844 11.2656C16.1927 11.0885 16.3958 11 16.5937 11C17.9687 11 19.099 11.5 19.9844 12.5H16.5C15.9583 12.5 15.4896 12.6979 15.0937 13.0938C14.6979 13.4896 14.5 13.9583 14.5 14.5V17.5Z" fill="#3F3D56"/>
</g>
<defs>
<clipPath id="clip0">
<rect width="32" height="24" fill="white"/>
</clipPath>
</defs>
</svg>
