<svg width="150" height="150" viewBox="0 0 150 150" fill="none" xmlns="http://www.w3.org/2000/svg">
<path d="M75 0.41658C33.5686 0.41658 0 33.7628 0 74.9199C0 116.077 33.5686 149.423 75 149.423C116.431 149.423 150 116.077 150 74.9199C150 33.7628 116.431 0.41658 75 0.41658ZM75 29.2566C89.6976 29.2566 101.613 41.093 101.613 55.6932C101.613 70.2934 89.6976 82.1299 75 82.1299C60.3024 82.1299 48.3871 70.2934 48.3871 55.6932C48.3871 41.093 60.3024 29.2566 75 29.2566ZM75 132.6C57.248 132.6 41.3407 124.609 30.6956 112.111C36.3811 101.477 47.5101 94.1465 60.4839 94.1465C61.2097 94.1465 61.9355 94.2667 62.6311 94.477C66.5625 95.7387 70.6754 96.5498 75 96.5498C79.3246 96.5498 83.4677 95.7387 87.3689 94.477C88.0645 94.2667 88.7903 94.1465 89.5161 94.1465C102.49 94.1465 113.619 101.477 119.304 112.111C108.659 124.609 92.752 132.6 75 132.6Z" fill="#E6E6E6"/>
</svg>
